<svg xmlns="http://www.w3.org/2000/svg" viewBox="0 0 1920 1080"><g id="Layer_4" data-name="Layer 4"><path d="M714.9,460.17a12.7,12.7,0,0,0,3.3-5.14c.49-1.47,1.2-2.2,2.11-2.2a2.49,2.49,0,0,1,1.65.92q.64,3.3,1.84,13.3L726,484.3c0,1.1-.67,1.65-2,1.65-.73,0-1.37-.61-1.92-1.84a50.22,50.22,0,0,0-14.41-20q-9.54-7.89-20.82-7.89-11.12,0-16.75,6.7t-5.64,14.22q0,9.18,6.15,14t25.32,11q14.13,4.4,21.15,8.53a35.24,35.24,0,0,1,11.79,11.56,29,29,0,0,1,4.77,16q0,14.5-12,26t-29.45,11.47q-15.69,0-31.56-9.82a11.58,11.58,0,0,0-4,6c-.49,2-1.29,2.94-2.39,2.94s-1.68-1.25-2.11-3.76-1.31-14.37-2.66-35.6c.25-.73.89-1.1,1.93-1.1s1.65.67,2.2,2q14.13,35.51,39.45,35.5,12.57,0,19.68-7.57A24.64,24.64,0,0,0,719.76,547a22,22,0,0,0-3.8-12.48,28.64,28.64,0,0,0-10.1-9.17q-6.29-3.49-19.86-7.8-17.43-5.6-23.72-10.6a31.54,31.54,0,0,1-9.22-11.28,28.75,28.75,0,0,1-2.93-12.16q0-12.2,11-21.65t27.11-9.45A45.45,45.45,0,0,1,701,454.3,69.82,69.82,0,0,1,714.9,460.17Z"/><path d="M790.27,555.58Q806,518.89,806,512.46a13.2,13.2,0,0,0-1.69-6.28A11.62,11.62,0,0,0,801,502a9.8,9.8,0,0,0-4.81-1.24c-1.47-.06-2.2-.61-2.2-1.65,0-1.35.79-2,2.38-2l16.24-.37q11.75,0,13.21.23c1,.16,1.47.66,1.47,1.52s-1,1.53-3,2.2c-3.67,1.28-5.5,3.06-5.5,5.32a31,31,0,0,0,1.7,6q1.69,5,6.76,16.92l11.12,25.51q6.23-15.69,11.26-31.06t5-17.72c0-3.14-2-4.9-5.87-5.26-2.27-.24-3.4-1-3.4-2.11,0-.85,1-1.36,2.94-1.51s6.05-.23,12.29-.23a68.39,68.39,0,0,1,7.89.27c1.16.19,1.75.68,1.75,1.47s-1.23,1.75-3.67,2.85a15.77,15.77,0,0,0-6.88,5.26q-2.29,3.27-5.23,13.64-2.38,8.43-10.53,29.91l-8.79,23.48c-.49,1.35-1.13,2-1.93,2s-1.74-1.53-2.85-4.59q-1.19-3-7.88-18.73-9.16-21-13.38-32.7l-.61.51q-2.65,7.9-7.87,20.83l-9.53,23.4q-4.2,10.46-4.9,11a2,2,0,0,1-1.14.56q-1.2,0-2.76-3.95-7.53-19.26-13.88-34.22l-10.47-24.22q-4-9.19-5.92-10.66a8,8,0,0,0-4.36-1.64q-3.12-.36-3.12-1.74c0-1.34,1.38-2,4.13-2l20.83-.36,8.62.18c1.78,0,2.66.46,2.66,1.38,0,1.22-1.19,2-3.57,2.38q-6.62,1.1-6.61,4.45Q770.59,510.08,790.27,555.58Z"/><path d="M928.3,562a28.61,28.61,0,0,1-24.86,13q-9.27,0-14.54-4.95t-5.28-13a21.4,21.4,0,0,1,3.17-11.28,20.47,20.47,0,0,1,7.24-7.53q4.08-2.29,14.36-5.78,14.68-4.86,17.62-8.08a11.94,11.94,0,0,0,2.93-8.36c0-5.47-1.28-9.71-3.85-12.75s-6.21-4.56-10.92-4.56c-3.85,0-6.76.86-8.71,2.58s-3.46,5.25-4.5,10.41q-1.65,8.48-7.25,8.48a7.67,7.67,0,0,1-6.88-8q0-6.89,7.62-12t20.92-5.09q10.54,0,16.83,3t7.89,6.84q1.6,3.85,1.61,14.88l-.55,24.25q0,14.05,1.69,20t6.29,5.93a16.07,16.07,0,0,0,2.57-.28l1.56-.18c1.4,0,2.11.51,2.11,1.53q0,3.51-18.08,3.52c-3.48,0-5.82-.82-7-2.44S928.42,567.14,928.3,562Zm0-35.79q-2.74,3.59-12.48,8.72-9.63,4.95-13.85,9.45a15.72,15.72,0,0,0-4.22,11,14.65,14.65,0,0,0,3.44,9.82,10.81,10.81,0,0,0,8.58,4,17.18,17.18,0,0,0,10-3.25,19.77,19.77,0,0,0,6.93-8.31q2.24-5,2.24-15Q928.94,535.3,928.3,526.22Z"/><path d="M1035.92,448.15q.09,19.64.09,53l-.73,58.26q0,9.63,8.9,11.19c2,.37,2.93,1,2.93,1.93a1.28,1.28,0,0,1-1,1.37q-1.07.29-12.16.28l-11.28-.19q-.29-5.6-.28-8.07,0-3.12.28-8.9-5,9.18-11.29,13.76a23.37,23.37,0,0,1-14,4.59q-10.92,0-22.15-10.28t-11.24-27.7A44.29,44.29,0,0,1,974.4,508q10.51-12.48,25.83-12.48a26,26,0,0,1,13.3,3.26,24,24,0,0,1,9.09,9.86q.54-10.82.55-20.34,0-29.2-1.47-32.42t-6.88-3.85c-2.27-.31-3.4-.91-3.4-1.79,0-1.07,1.44-1.6,4.32-1.6ZM1023,530.35q0-15.58-5.27-23.35t-15.92-7.75q-11.1,0-16.7,9T979.5,535.4q0,18.26,6.65,26.15t14.45,7.89q7.78,0,15.09-8.31T1023,530.35Z"/><path d="M1085.1,494.94l-.1,20.64.19,19.27v14.49l-.09,11c0,4.41.71,7.21,2.15,8.4s3.59,1.85,6.47,2c3.36.19,5,.89,5,2.11,0,1-.65,1.47-1.93,1.47q-.73,0-1.65-.09a123.45,123.45,0,0,0-15.87-1.1q-11.74,0-16.24.73a9.64,9.64,0,0,1-1.84.18c-1.47,0-2.2-.55-2.2-1.65s1.7-1.86,5.1-2.29,5.57-1.18,6.52-2.25,1.41-4.11,1.41-9.13l.64-38q0-15.23-2.29-18c-1.53-1.86-4.5-2.86-8.9-3-1.47,0-2.21-.49-2.21-1.47a1.43,1.43,0,0,1,.74-1.28q.73-.46,10.92-1.2C1077.76,495.28,1082.46,495,1085.1,494.94Zm-10.19-44.86a8.89,8.89,0,0,1,6.24,2.56,7.58,7.58,0,0,1,2.75,5.6,9.05,9.05,0,0,1-2.24,6.15,7.83,7.83,0,0,1-6.2,2.57,9.61,9.61,0,0,1-6.24-2.25,7.47,7.47,0,0,1-2.75-6.1,8.41,8.41,0,0,1,2.34-6.15A8.16,8.16,0,0,1,1074.91,450.08Z"/><path d="M1132.53,448.79q.27,3.48.27,4.95l-.27,9.81.46,35.19.09,36.39q15.45-10.64,23-18.86t7.5-11.7c0-2.38-2.25-3.79-6.73-4.22-2.37-.24-3.55-.83-3.55-1.78a1.24,1.24,0,0,1,1-1.34,59.12,59.12,0,0,1,8.1-.27l14,.09q4.4,0,8-.18,3.66,0,3.66,1.65c0,.85-.7,1.4-2.11,1.65a33.83,33.83,0,0,0-10.94,3.64q-4.55,2.55-11.32,9.75-6.32,6.71-8.15,8.44,13.18,6.36,19.95,35.46,1.65,7.1,4.77,9.86t11.56,3c1.84.12,2.76.69,2.76,1.7s-1.53,1.7-4.59,1.7h-22.2a14.37,14.37,0,0,1-4.45-6,54.79,54.79,0,0,1-2-9.38q-3.2-22.07-17.57-26.66-.45.46-10.59,7.71-.09,2.85-.09,5.16,0,17.48,2.17,21.57c1.45,2.73,4,4.18,7.53,4.37,1.91.06,2.87.64,2.87,1.74s-2,1.47-5.89,1.47H1113q-4.87,0-4.88-1.56c0-1,.74-1.59,2.21-1.84,3.11-.48,5.09-1,5.91-1.65a10.57,10.57,0,0,0,2.66-3.76q1.42-2.84,1.43-10.73l-.1-14.22-.91-64.68q0-10.92-2.18-15.28c-1.44-2.91-4.32-4.69-8.63-5.37q-2.31-.36-2.31-1.65c0-1,2.53-1.71,7.61-2,2.33-.18,4.8-.46,7.43-.82Q1128.86,449,1132.53,448.79Z"/><path d="M1249.23,562a28.61,28.61,0,0,1-24.86,13q-9.27,0-14.55-4.95t-5.27-13a21.39,21.39,0,0,1,3.16-11.28,20.49,20.49,0,0,1,7.25-7.53q4.08-2.29,14.36-5.78,14.68-4.86,17.62-8.08a11.94,11.94,0,0,0,2.93-8.36c0-5.47-1.28-9.71-3.85-12.75s-6.21-4.56-10.92-4.56q-5.77,0-8.72,2.58t-4.49,10.41q-1.65,8.48-7.25,8.48a7.67,7.67,0,0,1-6.88-8q0-6.89,7.62-12t20.91-5.09q10.56,0,16.84,3T1261,505q1.61,3.85,1.6,14.88l-.55,24.25q0,14.05,1.7,20t6.29,5.93a16,16,0,0,0,2.56-.28l1.56-.18c1.41,0,2.11.51,2.11,1.53q0,3.51-18.07,3.52c-3.49,0-5.83-.82-7-2.44S1249.35,567.14,1249.23,562Zm0-35.79q-2.76,3.59-12.48,8.72-9.63,4.95-13.85,9.45a15.67,15.67,0,0,0-4.22,11,14.6,14.6,0,0,0,3.44,9.82,10.81,10.81,0,0,0,8.58,4,17.21,17.21,0,0,0,10-3.25,19.74,19.74,0,0,0,6.92-8.31q2.25-5,2.25-15Q1249.87,535.3,1249.23,526.22Z"/><path d="M630.9,609.13H616.14v37.81h-4.09V609.13H597.29v-3.62H630.9Z"/><path d="M661.82,646.94h-4V630c0-3.46-.6-6.05-1.78-7.76a6,6,0,0,0-5.23-2.57,8.82,8.82,0,0,0-3.35.67,12.37,12.37,0,0,0-3.12,1.84,12.5,12.5,0,0,0-2.54,2.74,11.65,11.65,0,0,0-1.61,3.44v18.62h-4v-42.6h4v19.08a13.81,13.81,0,0,1,5-5.42,12.93,12.93,0,0,1,7-2,9.24,9.24,0,0,1,4.43,1,8.24,8.24,0,0,1,3,2.68,11.93,11.93,0,0,1,1.69,4.14,25.32,25.32,0,0,1,.52,5.34Z"/><path d="M683.41,647.52a14.72,14.72,0,0,1-6.1-1.25,14.94,14.94,0,0,1-4.81-3.45,16.09,16.09,0,0,1-3.18-5,16.41,16.41,0,0,1-1.14-6.13,16,16,0,0,1,1.14-6,15.66,15.66,0,0,1,3.15-5,14.88,14.88,0,0,1,4.81-3.38,15.32,15.32,0,0,1,12.17,0,14.31,14.31,0,0,1,4.75,3.41,15.8,15.8,0,0,1,3.1,5,16,16,0,0,1,1.11,6v.93a2.33,2.33,0,0,1-.06.65h-26a12.91,12.91,0,0,0,1.14,4.52,12.42,12.42,0,0,0,2.48,3.59,11.07,11.07,0,0,0,3.47,2.36,10.51,10.51,0,0,0,4.17.85,10.83,10.83,0,0,0,2.92-.41,11.7,11.7,0,0,0,2.69-1.11,10.19,10.19,0,0,0,2.21-1.72,7.39,7.39,0,0,0,1.52-2.25l3.44.93a10.16,10.16,0,0,1-2,3.07,14,14,0,0,1-3,2.39,14.5,14.5,0,0,1-3.73,1.58A16.58,16.58,0,0,1,683.41,647.52Zm11.2-17.39A12.08,12.08,0,0,0,691,622.2a11,11,0,0,0-3.44-2.28,10.76,10.76,0,0,0-4.17-.81,10.85,10.85,0,0,0-7.67,3.09,11.14,11.14,0,0,0-2.39,3.5,12.93,12.93,0,0,0-1.08,4.43Z"/><path d="M752.9,605.51v41.43h-4V627.57H724.31v19.37h-4.08V605.51h4.08V624h24.56V605.51Z"/><path d="M775,647.52a14.47,14.47,0,0,1-6.06-1.25,15,15,0,0,1-4.76-3.42,15.51,15.51,0,0,1-3.12-5,16.44,16.44,0,0,1-1.11-6,16.2,16.2,0,0,1,1.14-6.06,15.93,15.93,0,0,1,3.15-5A15.24,15.24,0,0,1,769,617.3a14.71,14.71,0,0,1,12,0,15.07,15.07,0,0,1,4.79,3.44,15.93,15.93,0,0,1,3.15,5,16.2,16.2,0,0,1,1.14,6.06,16.44,16.44,0,0,1-1.11,6,15.51,15.51,0,0,1-3.12,5,15,15,0,0,1-4.79,3.42A14.72,14.72,0,0,1,775,647.52Zm-11-15.64a12.69,12.69,0,0,0,3.24,8.61,10.67,10.67,0,0,0,3.5,2.6A10.08,10.08,0,0,0,775,644a9.83,9.83,0,0,0,4.29-1,11.24,11.24,0,0,0,3.53-2.63,12.67,12.67,0,0,0,2.4-3.88,13.51,13.51,0,0,0,0-9.54,12.59,12.59,0,0,0-2.4-3.91,11.21,11.21,0,0,0-3.53-2.62,9.7,9.7,0,0,0-4.29-1,9.57,9.57,0,0,0-4.26,1,11.34,11.34,0,0,0-3.5,2.65,13,13,0,0,0-2.39,3.94A13.21,13.21,0,0,0,764,631.88Z"/><path d="M842,646.94h-4V630c0-3.54-.57-6.15-1.69-7.82a5.67,5.67,0,0,0-5-2.51,8.48,8.48,0,0,0-3.3.64,10.23,10.23,0,0,0-2.86,1.81,12.52,12.52,0,0,0-2.3,2.77,13.45,13.45,0,0,0-1.52,3.53v18.56h-4V630q0-5.43-1.63-7.88a5.62,5.62,0,0,0-5-2.45,9,9,0,0,0-6.13,2.39,13.46,13.46,0,0,0-3.85,6.3v18.62h-4v-30.4h3.61v6.88a14.42,14.42,0,0,1,4.9-5.45,12.1,12.1,0,0,1,6.71-2,8.65,8.65,0,0,1,6.16,2.16,9.39,9.39,0,0,1,2.83,5.66q4.26-7.82,11.73-7.82a9.2,9.2,0,0,1,4.35.94,7.33,7.33,0,0,1,2.85,2.65,12.46,12.46,0,0,1,1.58,4.14,27.11,27.11,0,0,1,.5,5.4Z"/><path d="M863.52,647.52a14.68,14.68,0,0,1-6.09-1.25,15,15,0,0,1-4.82-3.45,16.09,16.09,0,0,1-3.18-5,16.41,16.41,0,0,1-1.13-6.13,16,16,0,0,1,1.13-6,15.66,15.66,0,0,1,3.15-5,14.92,14.92,0,0,1,4.82-3.38,15.3,15.3,0,0,1,12.16,0,14.35,14.35,0,0,1,4.76,3.41,16.05,16.05,0,0,1,4.2,10.91v.93a2.33,2.33,0,0,1-.06.65h-26a12.7,12.7,0,0,0,1.14,4.52,12.23,12.23,0,0,0,2.48,3.59,11,11,0,0,0,3.47,2.36,10.43,10.43,0,0,0,4.17.85,10.94,10.94,0,0,0,2.92-.41A11.62,11.62,0,0,0,869.3,643a10,10,0,0,0,2.22-1.72A7.58,7.58,0,0,0,873,639l3.44.93a10.19,10.19,0,0,1-2,3.07,13.72,13.72,0,0,1-3,2.39,14.57,14.57,0,0,1-3.74,1.58A16.58,16.58,0,0,1,863.52,647.52Zm11.21-17.39a12.37,12.37,0,0,0-1.14-4.46,12.14,12.14,0,0,0-2.45-3.47,11,11,0,0,0-3.44-2.28,10.85,10.85,0,0,0-4.18-.81,11.06,11.06,0,0,0-4.2.81,10.9,10.9,0,0,0-3.47,2.28,11.14,11.14,0,0,0-2.39,3.5,13.4,13.4,0,0,0-1.08,4.43Z"/><path d="M929.87,646.94h-4V630c0-3.54-.57-6.15-1.69-7.82a5.67,5.67,0,0,0-5-2.51,8.48,8.48,0,0,0-3.3.64,10.23,10.23,0,0,0-2.86,1.81,12.52,12.52,0,0,0-2.3,2.77,13.45,13.45,0,0,0-1.52,3.53v18.56h-4V630q0-5.43-1.63-7.88a5.62,5.62,0,0,0-5-2.45,9,9,0,0,0-6.13,2.39,13.46,13.46,0,0,0-3.85,6.3v18.62h-4v-30.4h3.61v6.88a14.36,14.36,0,0,1,4.91-5.45,12.05,12.05,0,0,1,6.71-2,8.64,8.64,0,0,1,6.15,2.16,9.39,9.39,0,0,1,2.83,5.66q4.26-7.82,11.73-7.82a9.2,9.2,0,0,1,4.35.94,7.33,7.33,0,0,1,2.85,2.65,12.46,12.46,0,0,1,1.58,4.14,27.11,27.11,0,0,1,.5,5.4Z"/><path d="M945.91,647.52a10.7,10.7,0,0,1-4-.73,10.38,10.38,0,0,1-3.21-2,9.27,9.27,0,0,1-2.13-3,9.13,9.13,0,0,1-.75-3.7,7.54,7.54,0,0,1,.93-3.68,8.88,8.88,0,0,1,2.63-2.92,12.9,12.9,0,0,1,4-1.89,18.48,18.48,0,0,1,5.14-.67,27.21,27.21,0,0,1,4.72.41,20.54,20.54,0,0,1,4.26,1.16v-2.74a8.87,8.87,0,0,0-2.27-6.39,8.37,8.37,0,0,0-6.31-2.36,13.42,13.42,0,0,0-4.78.93,22.9,22.9,0,0,0-5,2.69L937.8,620q5.9-4,11.44-4,5.71,0,9,3.21t3.27,8.87V641.8c0,1.09.48,1.64,1.46,1.64v3.5a10.17,10.17,0,0,1-1.52.17,3.38,3.38,0,0,1-2.36-.76,2.82,2.82,0,0,1-.91-2.1l-.11-2.39a13.74,13.74,0,0,1-5.28,4.2A16.3,16.3,0,0,1,945.91,647.52Zm.93-3a13.66,13.66,0,0,0,5.69-1.17,9.31,9.31,0,0,0,3.94-3.09,3.72,3.72,0,0,0,.79-1.14,3,3,0,0,0,.26-1.14v-5a25.52,25.52,0,0,0-4.11-1.17,23.23,23.23,0,0,0-4.35-.4,12.08,12.08,0,0,0-6.83,1.75,5.3,5.3,0,0,0-2.62,4.61,6.28,6.28,0,0,0,.55,2.62,6.63,6.63,0,0,0,1.52,2.13A7.16,7.16,0,0,0,944,644,7.81,7.81,0,0,0,946.84,644.49Z"/><path d="M982.55,647.52a13.15,13.15,0,0,1-5.83-1.31,15,15,0,0,1-4.61-3.47,16,16,0,0,1-3-5,16.49,16.49,0,0,1-1.08-5.93,17.68,17.68,0,0,1,1.05-6.09,16.37,16.37,0,0,1,2.89-5.05,13.59,13.59,0,0,1,4.38-3.41,12.35,12.35,0,0,1,5.57-1.26,11.86,11.86,0,0,1,6.83,2,15.1,15.1,0,0,1,4.66,4.87V604.34h4V641.8c0,1.09.47,1.64,1.4,1.64v3.5a8,8,0,0,1-1.4.17,3.65,3.65,0,0,1-2.45-.9,2.8,2.8,0,0,1-1-2.19v-3a13.24,13.24,0,0,1-4.9,4.73A12.82,12.82,0,0,1,982.55,647.52Zm.88-3.5a9.43,9.43,0,0,0,3.12-.58,12.82,12.82,0,0,0,3.12-1.61,10.85,10.85,0,0,0,2.48-2.39,6.41,6.41,0,0,0,1.25-3V627.1a10.53,10.53,0,0,0-1.69-3,13.56,13.56,0,0,0-2.54-2.42,11.87,11.87,0,0,0-3.06-1.63,9.5,9.5,0,0,0-3.21-.59,9.32,9.32,0,0,0-4.43,1,11.34,11.34,0,0,0-3.42,2.77,12.42,12.42,0,0,0-2.18,3.94,13.88,13.88,0,0,0-.76,4.55,12.66,12.66,0,0,0,.87,4.67,12.48,12.48,0,0,0,2.4,3.88A11.5,11.5,0,0,0,979,643,10.23,10.23,0,0,0,983.43,644Z"/><path d="M1019.48,647.52a14.68,14.68,0,0,1-6.09-1.25,15,15,0,0,1-4.82-3.45,16.09,16.09,0,0,1-3.18-5,16.41,16.41,0,0,1-1.13-6.13,16,16,0,0,1,1.13-6,15.66,15.66,0,0,1,3.15-5,14.92,14.92,0,0,1,4.82-3.38,15.3,15.3,0,0,1,12.16,0,14.35,14.35,0,0,1,4.76,3.41,16.05,16.05,0,0,1,4.2,10.91v.93a2.33,2.33,0,0,1-.06.65h-26a12.7,12.7,0,0,0,1.14,4.52,12.23,12.23,0,0,0,2.48,3.59,11,11,0,0,0,3.47,2.36,10.43,10.43,0,0,0,4.17.85,10.94,10.94,0,0,0,2.92-.41,11.62,11.62,0,0,0,2.68-1.11,10,10,0,0,0,2.22-1.72A7.58,7.58,0,0,0,1029,639l3.44.93a10.19,10.19,0,0,1-2,3.07,13.72,13.72,0,0,1-3,2.39,14.57,14.57,0,0,1-3.74,1.58A16.58,16.58,0,0,1,1019.48,647.52Zm11.21-17.39a12.37,12.37,0,0,0-1.14-4.46,12.14,12.14,0,0,0-2.45-3.47,11,11,0,0,0-3.44-2.28,10.85,10.85,0,0,0-4.18-.81,11.06,11.06,0,0,0-4.2.81,10.9,10.9,0,0,0-3.47,2.28,11.14,11.14,0,0,0-2.39,3.5,13.4,13.4,0,0,0-1.08,4.43Z"/><path d="M1086.23,640.87q-5.77,6.36-13.3,6.36a16.64,16.64,0,0,1-7.73-1.81,20.31,20.31,0,0,1-6.13-4.79,22.42,22.42,0,0,1-4-6.73,21.08,21.08,0,0,1-1.46-7.73,22.16,22.16,0,0,1,1.43-7.94,21.08,21.08,0,0,1,4-6.68,19.74,19.74,0,0,1,6.07-4.61,17.07,17.07,0,0,1,7.65-1.72,21.3,21.3,0,0,1,5.54.67,16.81,16.81,0,0,1,4.46,1.87,14.22,14.22,0,0,1,3.39,2.86,17.6,17.6,0,0,1,2.42,3.64l-3.15,2.1a13.46,13.46,0,0,0-5.31-5.66,15.11,15.11,0,0,0-7.41-1.81,13.18,13.18,0,0,0-6.22,1.46,15.16,15.16,0,0,0-4.72,3.88,17.73,17.73,0,0,0-3,5.55,20.07,20.07,0,0,0-1,6.44,18.59,18.59,0,0,0,1.2,6.66,17.51,17.51,0,0,0,3.29,5.51,16.21,16.21,0,0,0,4.94,3.76,13.55,13.55,0,0,0,6.15,1.4,14.69,14.69,0,0,0,6.8-1.66,20.13,20.13,0,0,0,6.21-5.28v-6.89H1077v-3.15h12.66v20.37h-3.44Z"/><path d="M1110.21,647.52a14.55,14.55,0,0,1-6.07-1.25,15,15,0,0,1-4.75-3.42,15.51,15.51,0,0,1-3.12-5,16.44,16.44,0,0,1-1.11-6,16.2,16.2,0,0,1,1.14-6.06,15.93,15.93,0,0,1,3.15-5,15.13,15.13,0,0,1,4.75-3.44,13.94,13.94,0,0,1,6-1.29,14.14,14.14,0,0,1,6,1.29,15.18,15.18,0,0,1,4.79,3.44,15.93,15.93,0,0,1,3.15,5,16.19,16.19,0,0,1,1.13,6.06,16.64,16.64,0,0,1-1.1,6,15.37,15.37,0,0,1-3.13,5,14.55,14.55,0,0,1-10.88,4.67Zm-11-15.64a12.74,12.74,0,0,0,3.23,8.61,10.89,10.89,0,0,0,3.5,2.6,10.16,10.16,0,0,0,4.29.93,9.83,9.83,0,0,0,4.29-1,11.36,11.36,0,0,0,3.53-2.63,12.46,12.46,0,0,0,2.39-3.88,13.37,13.37,0,0,0,0-9.54,12.38,12.38,0,0,0-2.39-3.91,11.33,11.33,0,0,0-3.53-2.62,9.7,9.7,0,0,0-4.29-1,9.57,9.57,0,0,0-4.26,1,11.23,11.23,0,0,0-3.5,2.65,12.75,12.75,0,0,0-2.39,3.94A13.21,13.21,0,0,0,1099.19,631.88Z"/><path d="M1144.93,647.52a14.52,14.52,0,0,1-6.07-1.25,15.07,15.07,0,0,1-4.76-3.42,15.51,15.51,0,0,1-3.12-5,16.44,16.44,0,0,1-1.11-6,16.2,16.2,0,0,1,1.14-6.06,15.93,15.93,0,0,1,3.15-5,15.17,15.17,0,0,1,4.76-3.44,13.94,13.94,0,0,1,6-1.29,14.14,14.14,0,0,1,6,1.29,15.14,15.14,0,0,1,4.78,3.44,15.93,15.93,0,0,1,3.15,5,16.2,16.2,0,0,1,1.14,6.06,16.44,16.44,0,0,1-1.11,6,15.51,15.51,0,0,1-3.12,5,14.93,14.93,0,0,1-4.78,3.42A14.76,14.76,0,0,1,1144.93,647.52Zm-11-15.64a12.6,12.6,0,0,0,.88,4.76,12.86,12.86,0,0,0,2.36,3.85,10.78,10.78,0,0,0,3.5,2.6,10.09,10.09,0,0,0,4.29.93,9.89,9.89,0,0,0,4.29-1,11.48,11.48,0,0,0,3.53-2.63,12.65,12.65,0,0,0,2.39-3.88,13.51,13.51,0,0,0,0-9.54,12.56,12.56,0,0,0-2.39-3.91,11.45,11.45,0,0,0-3.53-2.62,9.76,9.76,0,0,0-4.29-1,9.51,9.51,0,0,0-4.26,1,11.23,11.23,0,0,0-3.5,2.65,12.75,12.75,0,0,0-2.39,3.94A13,13,0,0,0,1133.9,631.88Z"/><path d="M1179.18,647.52a13.19,13.19,0,0,1-5.84-1.31,15.13,15.13,0,0,1-4.61-3.47,16.12,16.12,0,0,1-3-5,16.49,16.49,0,0,1-1.08-5.93,17.68,17.68,0,0,1,1-6.09,16.17,16.17,0,0,1,2.89-5.05,13.44,13.44,0,0,1,4.37-3.41,12.39,12.39,0,0,1,5.58-1.26,11.83,11.83,0,0,1,6.82,2,15.13,15.13,0,0,1,4.67,4.87V604.34h4V641.8c0,1.09.46,1.64,1.4,1.64v3.5a8.13,8.13,0,0,1-1.4.17,3.64,3.64,0,0,1-2.45-.9,2.8,2.8,0,0,1-1-2.19v-3a13.27,13.27,0,0,1-4.91,4.73A12.81,12.81,0,0,1,1179.18,647.52Zm.87-3.5a9.43,9.43,0,0,0,3.12-.58,12.82,12.82,0,0,0,3.12-1.61,10.65,10.65,0,0,0,2.48-2.39,6.42,6.42,0,0,0,1.26-3V627.1a10.53,10.53,0,0,0-1.69-3,13.87,13.87,0,0,0-2.54-2.42,12,12,0,0,0-3.06-1.63,9.5,9.5,0,0,0-3.21-.59,9.33,9.33,0,0,0-4.44,1,11.3,11.3,0,0,0-3.41,2.77,12.64,12.64,0,0,0-2.19,3.94,14.15,14.15,0,0,0-.76,4.55,12.79,12.79,0,0,0,3.27,8.55,11.55,11.55,0,0,0,3.59,2.66A10.21,10.21,0,0,0,1180.05,644Z"/><path d="M1228.54,646.94h-4V630c0-3.62-.53-6.25-1.61-7.88a5.48,5.48,0,0,0-4.92-2.45,10.11,10.11,0,0,0-3.51.64,11.84,11.84,0,0,0-3.23,1.81,13.74,13.74,0,0,0-2.66,2.77,10.86,10.86,0,0,0-1.69,3.47v18.62h-4v-30.4h3.62v6.88a14.33,14.33,0,0,1,5.34-5.37,14.63,14.63,0,0,1,7.55-2,8.82,8.82,0,0,1,4.26.94,7.2,7.2,0,0,1,2.8,2.62,12.1,12.1,0,0,1,1.52,4.14,29.29,29.29,0,0,1,.47,5.43Z"/><path d="M1250.13,647.52a14.72,14.72,0,0,1-6.1-1.25,15.09,15.09,0,0,1-4.82-3.45,15.88,15.88,0,0,1-3.17-5,16.41,16.41,0,0,1-1.14-6.13,16,16,0,0,1,1.14-6,15.31,15.31,0,0,1,3.15-5,14.91,14.91,0,0,1,10.88-4.64,14.57,14.57,0,0,1,6.1,1.26,14.42,14.42,0,0,1,4.75,3.41,16.05,16.05,0,0,1,4.2,10.91v.93a2.33,2.33,0,0,1-.06.65h-26a12.91,12.91,0,0,0,1.14,4.52,12.42,12.42,0,0,0,2.48,3.59,11.07,11.07,0,0,0,3.47,2.36,10.43,10.43,0,0,0,4.17.85,10.89,10.89,0,0,0,2.92-.41,11.44,11.44,0,0,0,2.68-1.11,10,10,0,0,0,2.22-1.72,7.39,7.39,0,0,0,1.52-2.25l3.44.93a10.35,10.35,0,0,1-2,3.07,14,14,0,0,1-3,2.39,14.65,14.65,0,0,1-3.73,1.58A16.7,16.7,0,0,1,1250.13,647.52Zm11.2-17.39a12.37,12.37,0,0,0-1.14-4.46,12.14,12.14,0,0,0-2.45-3.47,11,11,0,0,0-3.44-2.28,10.83,10.83,0,0,0-4.17-.81,10.83,10.83,0,0,0-10.07,6.59,13.4,13.4,0,0,0-1.08,4.43Z"/><path d="M1281.34,647.52a21.07,21.07,0,0,1-6.94-1.17,16.57,16.57,0,0,1-5.84-3.38l1.81-2.68a19.75,19.75,0,0,0,5.22,3.15,15.34,15.34,0,0,0,5.69,1,10.31,10.31,0,0,0,5.87-1.49,4.8,4.8,0,0,0,2.18-4.23,3.64,3.64,0,0,0-.58-2.13,5.11,5.11,0,0,0-1.72-1.49,13.28,13.28,0,0,0-2.86-1.14c-1.15-.33-2.48-.67-4-1-1.75-.43-3.26-.85-4.55-1.28a14.36,14.36,0,0,1-3.18-1.46,5.24,5.24,0,0,1-1.86-2,6.55,6.55,0,0,1-.62-3,8.51,8.51,0,0,1,.91-4,8.18,8.18,0,0,1,2.45-2.89,11,11,0,0,1,3.62-1.72,16.13,16.13,0,0,1,4.4-.59,17.06,17.06,0,0,1,6.36,1.14,12.52,12.52,0,0,1,4.61,3l-1.93,2.33a10.68,10.68,0,0,0-4.11-2.63,14.81,14.81,0,0,0-5-.87,12.66,12.66,0,0,0-2.91.32,6.87,6.87,0,0,0-2.37,1,5.06,5.06,0,0,0-1.6,1.78,5.26,5.26,0,0,0-.58,2.54,4.2,4.2,0,0,0,.4,2,3.41,3.41,0,0,0,1.35,1.31,11.3,11.3,0,0,0,2.36,1c1,.29,2.11.59,3.47.9,2,.47,3.66.93,5.14,1.4a16,16,0,0,1,3.7,1.64,6.51,6.51,0,0,1,2.25,2.27,6.62,6.62,0,0,1,.76,3.27,7.92,7.92,0,0,1-3.21,6.65Q1286.77,647.52,1281.34,647.52Z"/><path d="M1309.76,647.52a21.13,21.13,0,0,1-7-1.17A16.53,16.53,0,0,1,1297,643l1.81-2.68a19.75,19.75,0,0,0,5.22,3.15,15.31,15.31,0,0,0,5.69,1,10.28,10.28,0,0,0,5.86-1.49,4.81,4.81,0,0,0,2.19-4.23,3.72,3.72,0,0,0-.58-2.13,5.21,5.21,0,0,0-1.72-1.49,13.49,13.49,0,0,0-2.86-1.14c-1.15-.33-2.48-.67-4-1-1.75-.43-3.27-.85-4.55-1.28a14,14,0,0,1-3.18-1.46,5.27,5.27,0,0,1-1.87-2,6.56,6.56,0,0,1-.61-3,8.63,8.63,0,0,1,.9-4,8.28,8.28,0,0,1,2.45-2.89,11.13,11.13,0,0,1,3.62-1.72,16.15,16.15,0,0,1,4.41-.59,17.06,17.06,0,0,1,6.36,1.14,12.61,12.61,0,0,1,4.61,3l-1.93,2.33a10.76,10.76,0,0,0-4.11-2.63,14.86,14.86,0,0,0-5-.87,12.81,12.81,0,0,0-2.92.32,6.9,6.9,0,0,0-2.36,1,5.09,5.09,0,0,0-1.61,1.78,5.38,5.38,0,0,0-.58,2.54,4.19,4.19,0,0,0,.41,2,3.38,3.38,0,0,0,1.34,1.31,11.3,11.3,0,0,0,2.36,1c1,.29,2.11.59,3.48.9,1.94.47,3.65.93,5.13,1.4a16.1,16.1,0,0,1,3.71,1.64,6.39,6.39,0,0,1,2.24,2.27,6.51,6.51,0,0,1,.76,3.27,7.92,7.92,0,0,1-3.21,6.65Q1315.18,647.52,1309.76,647.52Z"/></g></svg>